<?xml version="1.0" encoding="UTF-8" standalone="no"?>
<!DOCTYPE svg PUBLIC "-//W3C//DTD SVG 1.1//EN" "http://www.w3.org/Graphics/SVG/1.1/DTD/svg11.dtd">
<svg version="1.1" xmlns="http://www.w3.org/2000/svg" xmlns:xlink="http://www.w3.org/1999/xlink" preserveAspectRatio="xMidYMid meet" viewBox="0 0 320 320" width="320" height="320"><defs><path d="M81.49 253.32L85.54 229.42C76.24 229.42 71.07 229.42 70.04 229.42C61.84 229.42 55.2 222.32 55.2 213.55C55.2 202.48 55.2 113.96 55.2 102.89C55.2 94.12 61.84 87.02 70.04 87.02C88.03 87.02 231.97 87.02 249.96 87.02C258.15 87.02 264.8 94.12 264.8 102.89C264.8 113.96 264.8 202.48 264.8 213.55C264.8 222.32 258.15 229.42 249.96 229.42C241.79 229.42 200.96 229.42 127.45 229.42L81.49 253.32Z" id="d8785OP69"></path></defs><g><g><g><g><use xlink:href="#d8785OP69" opacity="1" fill-opacity="0" stroke="#ffffff" stroke-width="12" stroke-opacity="1"></use></g></g></g></g></svg>