<?xml version="1.0" encoding="UTF-8" standalone="no"?>
<!DOCTYPE svg PUBLIC "-//W3C//DTD SVG 1.1//EN" "http://www.w3.org/Graphics/SVG/1.1/DTD/svg11.dtd">
<svg version="1.1" xmlns="http://www.w3.org/2000/svg" xmlns:xlink="http://www.w3.org/1999/xlink" preserveAspectRatio="xMidYMid meet" viewBox="0 0 300 300" width="300" height="300"><defs><path d="M172.65 30.98L150 17.59L125.53 30.98L134.41 51.35L134.41 87.24L105.83 64.93C96.09 74.83 89.6 85.58 86.35 97.18C83.1 108.78 83.1 121.23 86.35 134.53L120 122.64L120 234.68L150 278.82L181.99 234.68L181.99 122.64L211.14 134.53C216.98 121.23 217.82 108.78 213.65 97.18C209.48 85.58 201.14 74.83 188.63 64.93L163.84 87.24L163.84 51.35L172.65 30.98Z" id="dx60XYSJM"></path><path d="M150.33 275.42L150.33 120.95L150.33 275.42Z" id="cOlqS9jMW"></path><path d="M161.84 92.09L181.33 120.95L119.34 120.95" id="b1lWQZnn6y"></path><path d="M161.84 94.6L133.51 94.6L119.34 120.95" id="bXKajovax"></path></defs><g><g><g><g><use xlink:href="#dx60XYSJM" opacity="1" fill-opacity="0" stroke="#484848" stroke-width="11" stroke-opacity="1"></use></g></g><g><g><use xlink:href="#cOlqS9jMW" opacity="1" fill-opacity="0" stroke="#484848" stroke-width="11" stroke-opacity="1"></use></g></g><g><g><use xlink:href="#b1lWQZnn6y" opacity="1" fill-opacity="0" stroke="#484848" stroke-width="11" stroke-opacity="1"></use></g></g><g><g><use xlink:href="#bXKajovax" opacity="1" fill-opacity="0" stroke="#484848" stroke-width="11" stroke-opacity="1"></use></g></g></g></g></svg>