<?xml version="1.0" encoding="UTF-8" standalone="no"?>
<!DOCTYPE svg PUBLIC "-//W3C//DTD SVG 1.1//EN" "http://www.w3.org/Graphics/SVG/1.1/DTD/svg11.dtd">
<svg version="1.1" xmlns="http://www.w3.org/2000/svg" xmlns:xlink="http://www.w3.org/1999/xlink" preserveAspectRatio="xMidYMid meet" viewBox="0 0 300 300" width="300" height="300"><defs><path d="M45.61 53.59C40.26 62.25 40.08 73.14 45.13 81.97C46.07 83.63 48.43 87.76 52.21 94.38C46.52 100.07 42.96 103.63 41.53 105.06C32.47 114.12 27.39 126.4 27.39 139.21C27.39 144.76 27.39 134.97 27.39 138.91C27.39 155.14 39.01 169.05 54.99 171.92C55.77 172.06 57.73 172.42 60.87 172.98C58.24 186.89 59.8 196.42 65.52 201.55C71.75 207.14 87.05 204.64 111.42 194.05L111.42 220.43C99.76 240.22 94.57 252.38 95.84 256.92C96.43 259 99.36 261.81 104.66 265.35C112.04 270.29 121.46 271.04 129.54 267.33C131.28 266.53 135.63 264.53 142.58 261.34C149.21 264.36 153.35 266.26 155 267.01C164.23 271.23 174.81 271.3 184.09 267.22C186.77 266.04 181.17 268.5 184.09 267.22C191.26 264.07 194.14 255.43 190.3 248.61C188.19 244.85 182.9 235.46 174.45 220.43L174.45 197.51C195.12 206.34 210.08 209 219.31 205.5C228.54 202 232.05 192.33 229.83 176.5C233.43 176.38 235.68 176.31 236.58 176.28C253.69 175.7 266.8 160.85 265.24 143.8C265.03 141.55 265.81 150.08 265.24 143.8C264.56 136.44 261.97 129.4 257.71 123.37C255.52 120.27 250.05 112.51 241.29 100.11C246.53 94.43 249.81 90.88 251.12 89.46C258.33 81.65 257.78 69.46 249.9 62.33C244.74 57.67 244.39 57.35 239.44 52.87C230.16 44.47 216.73 42.5 205.43 47.88C202.57 49.25 195.42 52.65 183.99 58.09C175.02 47.79 169.41 41.35 167.17 38.77C154.76 24.53 132.61 24.6 120.29 38.91C118.09 41.47 112.58 47.86 103.78 58.09C93.7 51.23 87.4 46.94 84.87 45.22C71.79 36.32 53.93 40.13 45.61 53.59C43.88 56.4 48.66 48.65 45.61 53.59Z" id="fVLnJFuMg"></path><path d="M198.32 149.18C183.7 161.95 175.74 170.23 174.45 174.03C173.91 175.61 173.91 183.64 174.45 198.12" id="a1DDQZQogW"></path><path d="" id="h66uVk4EQ"></path><path d="M136.25 81.84C126.7 92.94 117.15 98.49 107.6 98.49C98.05 98.49 88.5 92.94 78.95 81.84" id="grvDwk8mH"></path><path d="M170.27 123.91C160.72 135.01 151.17 140.56 141.62 140.56C132.07 140.56 122.52 135.01 112.97 123.91" id="a3hph7sU3u"></path><path d="M212.84 85.51C203.29 96.6 193.74 102.15 184.19 102.15C174.64 102.15 165.09 96.6 155.54 85.51" id="cGkKruTTs"></path><path d="M87.56 149.18C102.18 161.95 110.14 170.23 111.44 174.03C111.98 175.61 111.98 183.64 111.44 198.12" id="a2gonfG7nf"></path></defs><g><g><g><g><g><use xlink:href="#fVLnJFuMg" opacity="1" fill-opacity="0" stroke="#484848" stroke-width="11" stroke-opacity="1"></use></g></g><g><g><use xlink:href="#a1DDQZQogW" opacity="1" fill-opacity="0" stroke="#484848" stroke-width="11" stroke-opacity="1"></use></g></g><g><g><use xlink:href="#h66uVk4EQ" opacity="1" fill-opacity="0" stroke="#484848" stroke-width="11" stroke-opacity="1"></use></g></g><g><g><use xlink:href="#grvDwk8mH" opacity="1" fill-opacity="0" stroke="#484848" stroke-width="11" stroke-opacity="1"></use></g></g></g><g><g><use xlink:href="#a3hph7sU3u" opacity="1" fill-opacity="0" stroke="#484848" stroke-width="11" stroke-opacity="1"></use></g></g><g><g><use xlink:href="#cGkKruTTs" opacity="1" fill-opacity="0" stroke="#484848" stroke-width="11" stroke-opacity="1"></use></g></g><g><g><use xlink:href="#a2gonfG7nf" opacity="1" fill-opacity="0" stroke="#484848" stroke-width="11" stroke-opacity="1"></use></g></g></g></g></svg>