<?xml version="1.0" encoding="UTF-8" standalone="no"?>
<!DOCTYPE svg PUBLIC "-//W3C//DTD SVG 1.1//EN" "http://www.w3.org/Graphics/SVG/1.1/DTD/svg11.dtd">
<svg version="1.1" xmlns="http://www.w3.org/2000/svg" xmlns:xlink="http://www.w3.org/1999/xlink" preserveAspectRatio="xMidYMid meet" viewBox="0 0 320 320" width="320" height="320"><defs><path d="M306.91 160C306.91 240.29 241.72 305.48 161.43 305.48C81.14 305.48 15.95 240.29 15.95 160C15.95 79.71 81.14 14.52 161.43 14.52C241.72 14.52 306.91 79.71 306.91 160Z" id="aBJuJBGRj"></path><path d="M304.18 160.62C304.18 239.4 240.22 303.37 161.43 303.37C82.64 303.37 18.67 239.4 18.67 160.62C18.67 81.83 82.64 17.86 161.43 17.86C240.22 17.86 304.18 81.83 304.18 160.62Z" id="ix8PZd1F9"></path><path d="M79.51 91.8C75.17 98.83 75.02 107.68 79.12 114.86C79.89 116.2 81.81 119.56 84.88 124.94C80.25 129.57 77.36 132.46 76.2 133.62C68.84 140.98 64.7 150.96 64.7 161.37C64.7 165.88 64.7 157.92 64.7 161.12C64.7 174.32 74.15 185.61 87.13 187.95C87.77 188.07 89.36 188.35 91.91 188.81C89.78 200.12 91.04 207.86 95.69 212.03C100.76 216.57 113.19 214.54 132.99 205.93L132.99 227.37C123.52 243.45 119.3 253.33 120.33 257.02C120.8 258.71 123.19 260.99 127.5 263.87C133.5 267.89 141.15 268.49 147.71 265.48C149.12 264.83 152.66 263.21 158.31 260.61C163.69 263.07 167.06 264.61 168.4 265.22C175.9 268.65 184.5 268.71 192.04 265.39C194.22 264.43 189.67 266.43 192.04 265.39C197.86 262.83 200.21 255.81 197.09 250.27C195.37 247.21 191.08 239.58 184.2 227.37L184.2 208.74C201.01 215.92 213.16 218.08 220.66 215.24C228.16 212.39 231.01 204.54 229.21 191.67C232.13 191.58 233.96 191.51 234.69 191.49C248.6 191.02 259.25 178.95 257.98 165.1C257.81 163.27 258.45 170.2 257.98 165.1C257.43 159.12 255.32 153.4 251.86 148.5C250.09 145.98 245.64 139.68 238.52 129.59C242.78 124.98 245.45 122.09 246.51 120.94C252.37 114.6 251.92 104.69 245.52 98.9C241.33 95.11 241.04 94.85 237.02 91.21C229.48 84.39 218.56 82.79 209.38 87.16C207.06 88.26 201.25 91.03 191.96 95.45C184.67 87.08 180.11 81.85 178.29 79.76C168.21 68.18 150.21 68.24 140.2 79.87C138.41 81.95 133.94 87.14 126.78 95.45C118.59 89.88 113.47 86.39 111.42 85C100.79 77.76 86.27 80.86 79.51 91.8C78.1 94.08 81.99 87.78 79.51 91.8Z" id="g1OgP2JsFO"></path><path d="M203.6 169.47C191.72 179.85 185.26 186.58 184.2 189.66C183.76 190.95 183.76 197.47 184.2 209.24" id="a2XScnmeun"></path><path d="" id="c8z2PevmS"></path><path d="M153.16 114.75C145.4 123.77 137.64 128.28 129.88 128.28C122.13 128.28 114.37 123.77 106.61 114.75" id="ezZrbYGpK"></path><path d="M180.81 148.94C173.05 157.95 165.29 162.46 157.53 162.46C149.77 162.46 142.01 157.95 134.25 148.94" id="aKMrLdWTh"></path><path d="M215.4 117.73C207.64 126.75 199.88 131.25 192.12 131.25C184.36 131.25 176.6 126.75 168.84 117.73" id="biQfCY1BP"></path><path d="M113.6 169.47C125.48 179.85 131.95 186.58 133 189.66C133.44 190.95 133.44 197.47 133 209.24" id="bljspUIBc"></path></defs><g><g><g><g><use xlink:href="#aBJuJBGRj" opacity="1" fill-opacity="0" stroke="#0eae14" stroke-width="10" stroke-opacity="1"></use></g></g><g><use xlink:href="#ix8PZd1F9" opacity="1" fill="#ffffff" fill-opacity="1"></use><g><use xlink:href="#ix8PZd1F9" opacity="1" fill-opacity="0" stroke="#eaeaea" stroke-width="4" stroke-opacity="1"></use></g></g><g><g><g><g><use xlink:href="#g1OgP2JsFO" opacity="1" fill-opacity="0" stroke="#484848" stroke-width="11" stroke-opacity="1"></use></g></g><g><g><use xlink:href="#a2XScnmeun" opacity="1" fill-opacity="0" stroke="#484848" stroke-width="11" stroke-opacity="1"></use></g></g><g><g><use xlink:href="#c8z2PevmS" opacity="1" fill-opacity="0" stroke="#484848" stroke-width="11" stroke-opacity="1"></use></g></g><g><g><use xlink:href="#ezZrbYGpK" opacity="1" fill-opacity="0" stroke="#484848" stroke-width="11" stroke-opacity="1"></use></g></g></g><g><g><use xlink:href="#aKMrLdWTh" opacity="1" fill-opacity="0" stroke="#484848" stroke-width="11" stroke-opacity="1"></use></g></g><g><g><use xlink:href="#biQfCY1BP" opacity="1" fill-opacity="0" stroke="#484848" stroke-width="11" stroke-opacity="1"></use></g></g><g><g><use xlink:href="#bljspUIBc" opacity="1" fill-opacity="0" stroke="#484848" stroke-width="11" stroke-opacity="1"></use></g></g></g></g></g></svg>