<?xml version="1.0" encoding="UTF-8" standalone="no"?>
<!DOCTYPE svg PUBLIC "-//W3C//DTD SVG 1.1//EN" "http://www.w3.org/Graphics/SVG/1.1/DTD/svg11.dtd">
<svg version="1.1" xmlns="http://www.w3.org/2000/svg" xmlns:xlink="http://www.w3.org/1999/xlink" preserveAspectRatio="xMidYMid meet" viewBox="0 0 320 320" width="320" height="320"><defs><path d="M259.59 260.38L259.59 70.8L55.62 70.8L55.62 260.38L259.59 260.38ZM234.09 236.69L195.85 201.14L170.35 212.99L132.11 165.59L81.12 228.79L81.12 94.5L234.09 94.5L234.09 236.69ZM187.64 121.23L186.74 121.31L185.85 121.43L184.98 121.58L184.11 121.76L183.26 121.97L182.42 122.21L181.6 122.49L180.79 122.79L180 123.12L179.22 123.47L178.46 123.86L177.72 124.26L177 124.7L176.3 125.16L175.62 125.64L174.95 126.15L174.32 126.68L173.7 127.23L173.1 127.8L172.53 128.4L171.99 129.01L171.47 129.65L170.97 130.3L170.51 130.97L170.07 131.66L169.65 132.36L169.27 133.09L168.92 133.82L168.59 134.57L168.3 135.34L168.04 136.12L167.81 136.91L167.62 137.71L167.46 138.53L167.33 139.36L167.24 140.19L167.18 141.04L167.16 141.89L167.18 142.75L167.24 143.59L167.33 144.43L167.46 145.26L167.62 146.07L167.81 146.88L168.04 147.67L168.3 148.45L168.59 149.21L168.92 149.96L169.27 150.7L169.65 151.42L170.07 152.13L170.51 152.82L170.97 153.49L171.47 154.14L171.99 154.77L172.53 155.39L173.1 155.98L173.7 156.56L174.32 157.11L174.95 157.64L175.62 158.15L176.3 158.63L177 159.09L177.72 159.52L178.46 159.93L179.22 160.31L180 160.67L180.79 161L181.6 161.3L182.42 161.57L183.26 161.81L184.11 162.03L184.98 162.21L185.85 162.36L186.74 162.48L187.64 162.56L188.55 162.61L189.47 162.63L190.39 162.61L191.3 162.56L192.2 162.48L193.09 162.36L193.97 162.21L194.83 162.03L195.69 161.81L196.52 161.57L197.35 161.3L198.16 161L198.95 160.67L199.73 160.31L200.48 159.93L201.22 159.52L201.95 159.09L202.65 158.63L203.33 158.15L203.99 157.64L204.63 157.11L205.25 156.56L205.84 155.98L206.41 155.39L206.96 154.77L207.48 154.14L207.97 153.49L208.44 152.82L208.88 152.13L209.29 151.42L209.67 150.7L210.03 149.96L210.35 149.21L210.64 148.45L210.91 147.67L211.13 146.88L211.33 146.07L211.49 145.26L211.62 144.43L211.71 143.59L211.76 142.75L211.78 141.89L211.76 141.04L211.71 140.19L211.62 139.36L211.49 138.53L211.33 137.71L211.13 136.91L210.91 136.12L210.64 135.34L210.35 134.57L210.03 133.82L209.67 133.09L209.29 132.36L208.88 131.66L208.44 130.97L207.97 130.3L207.48 129.65L206.96 129.01L206.41 128.4L205.84 127.8L205.25 127.23L204.63 126.68L203.99 126.15L203.33 125.64L202.65 125.16L201.95 124.7L201.22 124.26L200.48 123.86L199.73 123.47L198.95 123.12L198.16 122.79L197.35 122.49L196.52 122.21L195.69 121.97L194.83 121.76L193.97 121.58L193.09 121.43L192.2 121.31L191.3 121.23L190.39 121.17L189.47 121.16L188.55 121.17L187.64 121.23Z" id="a376e03FcG"></path></defs><g><g><g><use xlink:href="#a376e03FcG" opacity="1" fill="#ffffff" fill-opacity="1"></use></g></g></g></svg>