<?xml version="1.0" encoding="UTF-8" standalone="no"?>
<!DOCTYPE svg PUBLIC "-//W3C//DTD SVG 1.1//EN" "http://www.w3.org/Graphics/SVG/1.1/DTD/svg11.dtd">
<svg version="1.1" xmlns="http://www.w3.org/2000/svg" xmlns:xlink="http://www.w3.org/1999/xlink" preserveAspectRatio="xMidYMid meet" viewBox="0 0 320 320" width="320" height="320"><defs><path d="M139.69 78.24C141.69 78.24 142.94 78.24 143.44 78.24C146.18 78.24 148.82 77.16 150.77 75.23C151.24 74.76 150.91 75.09 151.71 74.3C152.65 73.37 153.84 72.74 155.13 72.49C156.35 72.25 156.82 72.15 157.74 71.97C160.06 71.51 162.43 71.28 164.8 71.29C165.47 71.29 167.15 71.29 169.85 71.29C172.59 71.58 174.31 71.76 174.99 71.84C179.23 72.28 183.36 73.44 187.22 75.25C188.66 75.93 186.89 75.1 188.27 75.75C192.35 77.67 196.19 80.06 199.71 82.87C201.25 84.09 199.21 82.47 200.41 83.43C205.03 87.11 208.91 91.64 211.85 96.77C212.09 97.19 212.68 98.22 213.63 99.87L217.93 108.61L213.38 108.6C208.8 104.11 205.93 101.3 204.79 100.18C201.3 96.75 197.09 94.15 192.47 92.55C192.27 92.48 191.77 92.31 190.98 92.03C188.21 91.3 186.48 90.84 185.78 90.66C182.93 89.91 179.91 90.13 177.2 91.3C175.67 91.96 176.49 91.6 175.27 92.13C171.73 93.66 169.24 96.93 168.71 100.75C168.54 101.99 168.12 105.08 167.43 110.04L156.8 110.03C156.81 108.83 156.81 108.07 156.81 107.77C156.81 102.99 155.48 98.3 152.97 94.22C152.73 93.84 152.13 92.86 151.17 91.31L133.46 91.3L129.63 96.52L112.38 96.75C111.66 92.93 111.21 90.54 111.03 89.59C110.35 85.97 110.48 82.24 111.42 78.68C111.68 77.69 112.33 75.22 113.37 71.26L129.65 71.27C130.47 72.25 130.99 72.87 131.2 73.11C132.9 75.14 135.12 76.66 137.63 77.52C137.9 77.62 138.59 77.86 139.69 78.24Z" id="b3fKF8kf9x"></path><path d="M156.92 165.41C156.79 165.48 156.71 165.53 156.68 165.55C154.43 166.85 152.59 168.75 151.38 171.05C151.29 171.21 151.09 171.59 150.76 172.22C150.38 173.92 150.14 174.99 150.04 175.42C149.7 176.92 149.54 178.45 149.54 179.99C149.63 196.55 149.88 241.62 149.97 257.6C149.99 261.02 149.34 264.41 148.07 267.58C147.82 268.2 147.9 268.02 147.37 269.33C147.02 270.21 146.96 271.17 147.19 272.09C147.35 272.71 147.13 271.82 147.2 272.11C147.67 273.94 149.32 275.22 151.21 275.22C154.42 275.22 159.56 275.23 162.45 275.23C165.45 275.23 168.24 273.7 169.85 271.18C170.34 270.42 169.45 271.81 170 270.95C171.49 268.61 172.27 265.88 172.23 263.1C171.94 243.84 171.12 188.64 170.83 168.95C170.8 167.58 170.15 166.3 169.05 165.48C168.88 165.35 168.45 165.03 167.76 164.52L167.13 114.58L156.76 114.58L156.92 165.41Z" id="c1nxBtX5JX"></path></defs><g><g><g><g><use xlink:href="#b3fKF8kf9x" opacity="1" fill="#ffffff" fill-opacity="1"></use><g><use xlink:href="#b3fKF8kf9x" opacity="1" fill-opacity="0" stroke="#ffffff" stroke-width="1" stroke-opacity="1"></use></g></g><g><use xlink:href="#c1nxBtX5JX" opacity="1" fill="#ffffff" fill-opacity="1"></use><g><use xlink:href="#c1nxBtX5JX" opacity="1" fill-opacity="0" stroke="#ffffff" stroke-width="1" stroke-opacity="1"></use></g></g></g></g></g></svg>