<?xml version="1.0" encoding="UTF-8" standalone="no"?>
<!DOCTYPE svg PUBLIC "-//W3C//DTD SVG 1.1//EN" "http://www.w3.org/Graphics/SVG/1.1/DTD/svg11.dtd">
<svg version="1.1" xmlns="http://www.w3.org/2000/svg" xmlns:xlink="http://www.w3.org/1999/xlink" preserveAspectRatio="xMidYMid meet" viewBox="0 0 300 300" width="300" height="300"><defs><path d="M98.19 98.4L82.02 84.56L82.02 54.61L37.58 57.42L35.1 99.91L63.05 99.91L80.38 117.27C71.52 131.04 66.74 140.52 66.04 145.73C65.35 150.93 66.73 160.57 70.18 174.65L48.18 202.8L17.21 215.41L32.43 248.77L73.92 240.33L70.18 215.41L85.74 197.3L122.76 240.33L177.9 240.33L210.98 197.3L230.27 219.75L225.16 240.33L268.37 246.06L279.51 208.62L250.81 202.8L230.27 174.65C232.67 162.25 233.6 152.61 233.04 145.73C232.47 138.85 227.75 129.36 218.86 117.27L237.36 103.78L268.37 99.91L264.88 62.7L225.16 54.61L218.86 87.07L201.53 99.91L98.19 98.4Z" id="d3YQRvGqzr"></path><path d="M105.75 175.4L138.83 186.73L138.83 151.69L105.75 132.37L105.75 175.4Z" id="c6Q6hbh9g"></path><path d="M195.33 175.4L162.24 186.73L162.24 151.69L195.33 132.37L195.33 175.4Z" id="c1AGgho63T"></path><path d="M130.17 239.57L130.17 210.13" id="a3W5BruL8"></path><path d="M150 240.33L150 210.88" id="aVvvLuchT"></path><path d="M168.32 239.57L168.32 210.13" id="cbvvYOU77"></path><path d="M89.2 203.24L69.05 175.75" id="e2s75HYNPh"></path><path d="M229.91 172.98L210.26 198.97" id="dp3zmZQj7"></path><path d="M199.75 96.72L222.54 121.3" id="c1y4b9VL3d"></path><path d="M77.74 118.27L100.67 96.22" id="b244LABomR"></path></defs><g><g><g><g><g><use xlink:href="#d3YQRvGqzr" opacity="1" fill-opacity="0" stroke="#484848" stroke-width="11" stroke-opacity="1"></use></g></g><g><g><use xlink:href="#c6Q6hbh9g" opacity="1" fill-opacity="0" stroke="#484848" stroke-width="11" stroke-opacity="1"></use></g></g><g><g><use xlink:href="#c1AGgho63T" opacity="1" fill-opacity="0" stroke="#484848" stroke-width="11" stroke-opacity="1"></use></g></g><g><g><use xlink:href="#a3W5BruL8" opacity="1" fill-opacity="0" stroke="#484848" stroke-width="11" stroke-opacity="1"></use></g></g><g><g><use xlink:href="#aVvvLuchT" opacity="1" fill-opacity="0" stroke="#484848" stroke-width="11" stroke-opacity="1"></use></g></g><g><g><use xlink:href="#cbvvYOU77" opacity="1" fill-opacity="0" stroke="#484848" stroke-width="11" stroke-opacity="1"></use></g></g><g><g><use xlink:href="#e2s75HYNPh" opacity="1" fill-opacity="0" stroke="#484848" stroke-width="11" stroke-opacity="1"></use></g></g><g><g><use xlink:href="#dp3zmZQj7" opacity="1" fill-opacity="0" stroke="#484848" stroke-width="11" stroke-opacity="1"></use></g></g><g><g><use xlink:href="#c1y4b9VL3d" opacity="1" fill-opacity="0" stroke="#484848" stroke-width="11" stroke-opacity="1"></use></g></g><g><g><use xlink:href="#b244LABomR" opacity="1" fill-opacity="0" stroke="#484848" stroke-width="11" stroke-opacity="1"></use></g></g></g></g></g></svg>