<?xml version="1.0" encoding="UTF-8" standalone="no"?>
<!DOCTYPE svg PUBLIC "-//W3C//DTD SVG 1.1//EN" "http://www.w3.org/Graphics/SVG/1.1/DTD/svg11.dtd">
<svg version="1.1" xmlns="http://www.w3.org/2000/svg" xmlns:xlink="http://www.w3.org/1999/xlink" preserveAspectRatio="xMidYMid meet" viewBox="0 0 300 300" width="300" height="300"><defs><path d="M115.09 207.02L150 195.79L184.56 207.02L216.28 247.82L274.65 204.5L212.28 124.59C221.34 110.63 225.96 100.86 226.15 95.27C226.34 89.67 218.08 70.82 201.35 38.72L205.08 91.14L192.61 118.3L149.09 94.22L103.02 118.3L90.92 91.06L94.28 38.72C78.7 72.12 70.69 92.15 70.24 98.79C69.79 105.43 74.89 116.12 85.54 130.87L26.36 211.54L80.67 247.82L115.09 207.02Z" id="c40fL8DKk"></path><path d="M103.78 121.3L148.63 146.58L191.69 121.3" id="b9wCPfYKL"></path><path d="M39.21 186.44L82.91 219.16" id="b1zstvBZvU"></path><path d="M54.01 169L97.72 201.73" id="bNj7CgyJY"></path><path d="M67.59 151.06L111.29 183.79" id="bQJP81i"></path><path d="M187.9 182.72L231.61 150" id="d6WmVVpSyD"></path><path d="M202.71 200.16L246.41 167.44" id="f1jtTuBs25"></path><path d="M216.28 218.1L259.99 185.37" id="a5gOX6Usp"></path></defs><g><g><g><g><use xlink:href="#c40fL8DKk" opacity="1" fill-opacity="0" stroke="#484848" stroke-width="11" stroke-opacity="1"></use></g></g><g><g><use xlink:href="#b9wCPfYKL" opacity="1" fill-opacity="0" stroke="#484848" stroke-width="11" stroke-opacity="1"></use></g></g><g><g><use xlink:href="#b1zstvBZvU" opacity="1" fill-opacity="0" stroke="#484848" stroke-width="11" stroke-opacity="1"></use></g></g><g><g><use xlink:href="#bNj7CgyJY" opacity="1" fill-opacity="0" stroke="#484848" stroke-width="11" stroke-opacity="1"></use></g></g><g><g><use xlink:href="#bQJP81i" opacity="1" fill-opacity="0" stroke="#484848" stroke-width="11" stroke-opacity="1"></use></g></g><g><g><use xlink:href="#d6WmVVpSyD" opacity="1" fill-opacity="0" stroke="#484848" stroke-width="11" stroke-opacity="1"></use></g></g><g><g><use xlink:href="#f1jtTuBs25" opacity="1" fill-opacity="0" stroke="#484848" stroke-width="11" stroke-opacity="1"></use></g></g><g><g><use xlink:href="#a5gOX6Usp" opacity="1" fill-opacity="0" stroke="#484848" stroke-width="11" stroke-opacity="1"></use></g></g></g></g></svg>