<?xml version="1.0" encoding="UTF-8" standalone="no"?>
<!DOCTYPE svg PUBLIC "-//W3C//DTD SVG 1.1//EN" "http://www.w3.org/Graphics/SVG/1.1/DTD/svg11.dtd">
<svg version="1.1" xmlns="http://www.w3.org/2000/svg" xmlns:xlink="http://www.w3.org/1999/xlink" preserveAspectRatio="xMidYMid meet" viewBox="0 0 320 320" width="320" height="320"><defs><path d="M101.69 140.66L218.73 140.66L218.73 257.29L101.69 257.29L101.69 140.66Z" id="aHnkxnCE"></path><path d="M96.09 86.25L224.34 86.25L224.34 140.66L96.09 140.66L96.09 86.25Z" id="aAsYb5JO"></path><path d="M219.91 255.47C219.91 264.58 193.07 271.98 160 271.98C126.93 271.98 100.09 264.58 100.09 255.47C100.09 246.36 126.93 238.96 160 238.96C193.07 238.96 219.91 246.36 219.91 255.47Z" id="n17EkhFXb"></path><path d="M101.69 255.47L101.69 137.25" id="aeW6oR7X"></path><path d="M218.73 255.47L218.73 138.84" id="e2ep30e2Cv"></path><path d="M225.65 88.06C225.65 92.74 195.94 96.53 159.35 96.53C122.76 96.53 93.05 92.74 93.05 88.06C93.05 83.39 122.76 79.59 159.35 79.59C195.94 79.59 225.65 83.39 225.65 88.06Z" id="b6levOJp4"></path><path d="M225.65 138.84C225.65 142.04 195.94 144.64 159.35 144.64C122.76 144.64 93.05 142.04 93.05 138.84C93.05 135.63 122.76 133.03 159.35 133.03C195.94 133.03 225.65 135.63 225.65 138.84Z" id="b1A9bhtglY"></path><path d="M94.82 138.84L94.82 88.06" id="c19FEvi6Dn"></path><path d="M224.34 138.84L224.34 88.06" id="a4XG0q0Z3t"></path><path d="M221.92 135.74C221.92 138.95 193.88 141.55 159.35 141.55C124.81 141.55 96.78 138.95 96.78 135.74C96.78 132.54 124.81 129.93 159.35 129.93C193.88 129.93 221.92 132.54 221.92 135.74Z" id="a4FIECxhAm"></path><path d="M217.51 250.9C217.51 257.48 191.98 262.83 160.53 262.83C129.08 262.83 103.55 257.48 103.55 250.9C103.55 244.31 129.08 238.96 160.53 238.96C191.98 238.96 217.51 244.31 217.51 250.9Z" id="d1TR0C1w5c"></path><path d="M179.7 143L203.67 143L203.67 262.83L179.7 262.83L179.7 143Z" id="a9JqD09EP"></path><path d="M215.38 88.06C215.38 91.93 190.81 95.07 160.53 95.07C130.26 95.07 105.68 91.93 105.68 88.06C105.68 84.2 130.26 81.06 160.53 81.06C190.81 81.06 215.38 84.2 215.38 88.06Z" id="d16FeoqLST"></path><path d="M192.75 88.06C192.75 83.68 192.75 80.93 192.75 79.84C192.75 74.67 188.57 70.49 183.4 70.49C182.94 70.49 181.79 70.49 179.95 70.49L139.47 70.49C137.88 70.49 136.89 70.49 136.49 70.49C131.98 70.49 128.31 74.15 128.31 78.67C128.31 79.92 128.31 83.05 128.31 88.06" id="hQ661qoAD"></path><path d="M192.75 88.06C192.75 83.68 192.75 80.93 192.75 79.84C192.75 74.67 188.57 70.49 183.4 70.49C182.94 70.49 181.79 70.49 179.95 70.49L139.47 70.49C137.88 70.49 136.89 70.49 136.49 70.49C131.98 70.49 128.31 74.15 128.31 78.67C128.31 79.92 128.31 83.05 128.31 88.06" id="aZy1dsF0r"></path></defs><g><g><g><use xlink:href="#aHnkxnCE" opacity="1" fill="#ffffff" fill-opacity="1"></use></g><g><use xlink:href="#aAsYb5JO" opacity="1" fill="#ffffff" fill-opacity="1"></use></g><g><use xlink:href="#n17EkhFXb" opacity="1" fill="#484848" fill-opacity="1"></use></g><g><use xlink:href="#aeW6oR7X" opacity="1" fill="#484848" fill-opacity="1"></use><g><use xlink:href="#aeW6oR7X" opacity="1" fill-opacity="0" stroke="#484848" stroke-width="3" stroke-opacity="1"></use></g></g><g><use xlink:href="#e2ep30e2Cv" opacity="1" fill="#484848" fill-opacity="1"></use><g><use xlink:href="#e2ep30e2Cv" opacity="1" fill-opacity="0" stroke="#484848" stroke-width="3" stroke-opacity="1"></use></g></g><g><use xlink:href="#b6levOJp4" opacity="1" fill="#484848" fill-opacity="1"></use></g><g><use xlink:href="#b1A9bhtglY" opacity="1" fill="#484848" fill-opacity="1"></use></g><g><use xlink:href="#c19FEvi6Dn" opacity="1" fill="#484848" fill-opacity="1"></use><g><use xlink:href="#c19FEvi6Dn" opacity="1" fill-opacity="0" stroke="#484848" stroke-width="3" stroke-opacity="1"></use></g></g><g><use xlink:href="#a4XG0q0Z3t" opacity="1" fill="#484848" fill-opacity="1"></use><g><use xlink:href="#a4XG0q0Z3t" opacity="1" fill-opacity="0" stroke="#000000" stroke-width="3" stroke-opacity="1"></use></g></g><g><use xlink:href="#a4FIECxhAm" opacity="1" fill="#ffffff" fill-opacity="1"></use></g><g><use xlink:href="#d1TR0C1w5c" opacity="1" fill="#ffffff" fill-opacity="1"></use></g><g><use xlink:href="#a9JqD09EP" opacity="1" fill="#484848" fill-opacity="1"></use></g><g><use xlink:href="#d16FeoqLST" opacity="1" fill="#484848" fill-opacity="1"></use></g><g><g><use xlink:href="#hQ661qoAD" opacity="1" fill-opacity="0" stroke="#484848" stroke-width="13" stroke-opacity="1"></use></g></g><g><g><use xlink:href="#aZy1dsF0r" opacity="1" fill-opacity="0" stroke="#ffffff" stroke-width="5" stroke-opacity="1"></use></g></g></g></g></svg>