<?xml version="1.0" encoding="UTF-8" standalone="no"?>
<!DOCTYPE svg PUBLIC "-//W3C//DTD SVG 1.1//EN" "http://www.w3.org/Graphics/SVG/1.1/DTD/svg11.dtd">
<svg version="1.1" xmlns="http://www.w3.org/2000/svg" xmlns:xlink="http://www.w3.org/1999/xlink" preserveAspectRatio="xMidYMid meet" viewBox="0 0 320 320" width="320" height="320"><defs><path d="M306.91 160C306.91 240.29 241.72 305.48 161.43 305.48C81.14 305.48 15.95 240.29 15.95 160C15.95 79.71 81.14 14.52 161.43 14.52C241.72 14.52 306.91 79.71 306.91 160Z" id="e5DhmAdURR"></path><path d="M304.18 160.62C304.18 239.4 240.22 303.37 161.43 303.37C82.64 303.37 18.67 239.4 18.67 160.62C18.67 81.83 82.64 17.86 161.43 17.86C240.22 17.86 304.18 81.83 304.18 160.62Z" id="b16mVx5WpL"></path><path d="M150.8 253.43L171.53 253.59C174.48 253.41 176.33 253.31 177.06 253.26C184.92 252.8 192.71 251.58 200.33 249.6C202.41 249.06 207.62 247.71 215.95 245.55C217.42 244.75 218.34 244.25 218.71 244.05C222.68 241.9 223.94 236.81 221.44 233.05C221.04 232.46 220.06 230.99 218.49 228.63L196.07 195.21C200.23 194.17 202.83 193.52 203.87 193.26C208.8 192.02 213.55 190.18 218.02 187.75C221.67 185.78 219.61 186.89 221.69 185.76C231.27 180.57 239.5 173.21 245.72 164.27C247.23 162.11 243.83 166.99 245.72 164.27C250.64 157.21 253.32 148.83 253.41 140.22C253.45 136.84 253.39 142.87 253.41 140.22C253.53 129.41 249.23 119.02 241.5 111.45C239.86 109.84 242.56 112.49 239.8 109.79C235.61 105.69 230.05 103.29 224.19 103.07C220.89 102.95 212.64 102.64 199.45 102.14C198.93 100.99 198.61 100.27 198.48 99.98C193.11 88.03 183.51 78.48 171.53 73.18C171.53 73.18 171.53 73.18 171.53 73.18C169.89 72.6 168.86 72.24 168.45 72.1C163.36 70.3 157.78 70.47 152.81 72.58C152.67 72.64 152.32 72.79 151.75 73.03" id="bcxxwKUaE"></path><path d="M151.33 253.43C148.38 253.26 146.53 253.15 145.79 253.11C137.94 252.65 130.15 251.43 122.53 249.45C120.45 248.91 115.24 247.56 106.91 245.4C105.44 244.6 104.52 244.1 104.15 243.9C100.18 241.75 98.92 236.66 101.42 232.9C101.81 232.31 102.8 230.83 104.37 228.47L126.79 195.9C122.57 194.61 119.93 193.81 118.88 193.48C114.01 192 109.31 190.03 104.84 187.6C101.19 185.62 103.24 186.74 101.16 185.61C91.59 180.42 83.36 173.06 77.14 164.12C75.63 161.95 79.03 166.84 77.14 164.12C72.22 157.06 69.54 148.68 69.44 140.07C69.41 136.69 69.47 142.71 69.44 140.07C69.33 129.26 73.63 118.86 81.36 111.3C83 109.69 80.3 112.34 83.06 109.63C87.24 105.53 92.81 103.14 98.67 102.92C101.97 102.8 110.21 102.49 123.41 101.99C124.23 100.23 124.75 99.13 124.95 98.69C129.97 87.96 138.52 79.28 149.17 74.08C149.45 73.94 150.17 73.59 151.33 73.03" id="bqeNRMvsv"></path><path d="M205.85 142.57C205.85 182.14 185.94 214.27 161.43 214.27C136.91 214.27 117.01 182.14 117.01 142.57C117.01 102.99 136.91 70.86 161.43 70.86C185.94 70.86 205.85 102.99 205.85 142.57Z" id="cb5AaRY3W"></path><path d="M185.75 251.49L173.48 213" id="e25HRQDRB5"></path><path d="M138.22 251.49L150.49 213" id="c35AOdeUF"></path></defs><g><g><g><g><use xlink:href="#e5DhmAdURR" opacity="1" fill-opacity="0" stroke="#18ccd7" stroke-width="10" stroke-opacity="1"></use></g></g><g><use xlink:href="#b16mVx5WpL" opacity="1" fill="#ffffff" fill-opacity="1"></use><g><use xlink:href="#b16mVx5WpL" opacity="1" fill-opacity="0" stroke="#eaeaea" stroke-width="4" stroke-opacity="1"></use></g></g><g><g><g><g><use xlink:href="#bcxxwKUaE" opacity="1" fill-opacity="0" stroke="#484848" stroke-width="11" stroke-opacity="1"></use></g></g><g><g><use xlink:href="#bqeNRMvsv" opacity="1" fill-opacity="0" stroke="#484848" stroke-width="11" stroke-opacity="1"></use></g></g></g><g><g><use xlink:href="#cb5AaRY3W" opacity="1" fill-opacity="0" stroke="#484848" stroke-width="11" stroke-opacity="1"></use></g></g><g><g><use xlink:href="#e25HRQDRB5" opacity="1" fill-opacity="0" stroke="#484848" stroke-width="11" stroke-opacity="1"></use></g></g><g><g><use xlink:href="#c35AOdeUF" opacity="1" fill-opacity="0" stroke="#484848" stroke-width="11" stroke-opacity="1"></use></g></g></g></g></g></svg>