<?xml version="1.0" encoding="UTF-8" standalone="no"?>
<!DOCTYPE svg PUBLIC "-//W3C//DTD SVG 1.1//EN" "http://www.w3.org/Graphics/SVG/1.1/DTD/svg11.dtd">
<svg version="1.1" xmlns="http://www.w3.org/2000/svg" xmlns:xlink="http://www.w3.org/1999/xlink" preserveAspectRatio="xMidYMid meet" viewBox="0 0 300 300" width="300" height="300"><defs><path d="M131.58 253.29L156.23 253.47C159.74 253.27 161.93 253.14 162.8 253.09C172.15 252.55 181.41 251.09 190.47 248.74C192.94 248.1 199.13 246.49 209.04 243.92C210.79 242.97 211.88 242.38 212.32 242.14C217.04 239.59 218.54 233.53 215.56 229.06C215.1 228.36 213.93 226.61 212.06 223.8L185.4 184.07C190.35 182.83 193.44 182.06 194.68 181.75C200.54 180.28 206.19 178.08 211.5 175.2C215.84 172.85 213.4 174.17 215.87 172.83C227.25 166.66 237.04 157.91 244.44 147.29C246.23 144.71 242.19 150.52 244.44 147.29C250.29 138.89 253.47 128.93 253.58 118.69C253.63 114.67 253.55 121.83 253.58 118.69C253.72 105.83 248.61 93.48 239.42 84.48C237.47 82.57 240.68 85.71 237.4 82.5C232.42 77.63 225.8 74.78 218.84 74.52C214.91 74.37 205.11 74 189.42 73.42C188.81 72.05 188.42 71.19 188.27 70.85C181.89 56.63 170.48 45.28 156.23 38.98C156.23 38.98 156.23 38.98 156.23 38.98C154.27 38.29 153.05 37.86 152.56 37.69C146.51 35.55 139.88 35.76 133.97 38.26C133.8 38.33 133.38 38.51 132.71 38.8" id="b5iI43S9z6"></path><path d="M132.2 253.29C128.7 253.09 126.5 252.96 125.63 252.91C116.29 252.36 107.02 250.91 97.97 248.56C95.49 247.91 89.3 246.31 79.39 243.74C77.64 242.79 76.55 242.2 76.11 241.96C71.39 239.4 69.89 233.35 72.87 228.88C73.34 228.18 74.51 226.42 76.38 223.62L103.03 184.89C98.02 183.36 94.88 182.4 93.63 182.02C87.84 180.25 82.25 177.91 76.93 175.02C72.59 172.67 75.03 173.99 72.56 172.65C61.18 166.48 51.4 157.73 43.99 147.11C42.2 144.53 46.25 150.34 43.99 147.11C38.14 138.71 34.96 128.74 34.85 118.51C34.8 114.49 34.88 121.65 34.85 118.51C34.71 105.65 39.83 93.3 49.01 84.3C50.97 82.39 47.75 85.53 51.03 82.32C56.01 77.44 62.63 74.6 69.6 74.34C73.52 74.19 83.32 73.82 99.01 73.23C99.99 71.14 100.6 69.83 100.85 69.31C106.82 56.55 116.98 46.23 129.64 40.05C129.98 39.89 130.84 39.47 132.2 38.8" id="b33wucXWd"></path><path d="M197.03 121.47C197.03 168.53 173.36 206.73 144.22 206.73C115.07 206.73 91.41 168.53 91.41 121.47C91.41 74.42 115.07 36.22 144.22 36.22C173.36 36.22 197.03 74.42 197.03 121.47Z" id="c2zjsbzYDV"></path><path d="M173.14 250.99L158.55 205.22" id="ad1QHEqlh"></path><path d="M116.62 250.99L131.21 205.22" id="a3LfrXRP2Y"></path></defs><g><g><g><g><g><use xlink:href="#b5iI43S9z6" opacity="1" fill-opacity="0" stroke="#484848" stroke-width="11" stroke-opacity="1"></use></g></g><g><g><use xlink:href="#b33wucXWd" opacity="1" fill-opacity="0" stroke="#484848" stroke-width="11" stroke-opacity="1"></use></g></g></g><g><g><use xlink:href="#c2zjsbzYDV" opacity="1" fill-opacity="0" stroke="#484848" stroke-width="11" stroke-opacity="1"></use></g></g><g><g><use xlink:href="#ad1QHEqlh" opacity="1" fill-opacity="0" stroke="#484848" stroke-width="11" stroke-opacity="1"></use></g></g><g><g><use xlink:href="#a3LfrXRP2Y" opacity="1" fill-opacity="0" stroke="#484848" stroke-width="11" stroke-opacity="1"></use></g></g></g></g></svg>