<?xml version="1.0" encoding="UTF-8" standalone="no"?>
<!DOCTYPE svg PUBLIC "-//W3C//DTD SVG 1.1//EN" "http://www.w3.org/Graphics/SVG/1.1/DTD/svg11.dtd">
<svg version="1.1" xmlns="http://www.w3.org/2000/svg" xmlns:xlink="http://www.w3.org/1999/xlink" preserveAspectRatio="xMidYMid meet" viewBox="0 0 320 320" width="320" height="320"><defs><path d="M305.48 160C305.48 240.29 240.29 305.48 160 305.48C79.71 305.48 14.52 240.29 14.52 160C14.52 79.71 79.71 14.52 160 14.52C240.29 14.52 305.48 79.71 305.48 160Z" id="bmKww1S1i"></path><path d="M302.75 160.62C302.75 239.4 238.79 303.37 160 303.37C81.21 303.37 17.25 239.4 17.25 160.62C17.25 81.83 81.21 17.86 160 17.86C238.79 17.86 302.75 81.83 302.75 160.62Z" id="e1YgVIi2r3"></path><path d="M148.02 251.82L168.75 251.98C171.7 251.8 173.54 251.7 174.28 251.65C182.14 251.2 189.93 249.97 197.55 247.99C199.63 247.45 204.84 246.1 213.17 243.94C214.64 243.14 215.56 242.64 215.93 242.45C219.89 240.3 221.16 235.2 218.65 231.44C218.26 230.85 217.28 229.38 215.71 227.02L193.29 193.6C197.45 192.56 200.05 191.91 201.09 191.65C206.02 190.42 210.77 188.57 215.24 186.14C218.89 184.17 216.83 185.28 218.91 184.15C228.49 178.96 236.71 171.6 242.94 162.67C244.45 160.5 241.05 165.38 242.94 162.67C247.86 155.6 250.54 147.22 250.63 138.62C250.67 135.23 250.61 141.26 250.63 138.62C250.75 127.8 246.45 117.41 238.72 109.84C237.08 108.23 239.78 110.88 237.02 108.18C232.83 104.08 227.27 101.68 221.41 101.46C218.11 101.34 209.86 101.03 196.67 100.54C196.15 99.38 195.83 98.66 195.7 98.37C190.33 86.42 180.73 76.87 168.75 71.57C168.75 71.57 168.75 71.57 168.75 71.57C167.11 70.99 166.08 70.63 165.67 70.49C160.58 68.69 155 68.86 150.03 70.97C149.89 71.03 149.54 71.18 148.97 71.42" id="aR15qKyET"></path><path d="M148.54 251.82C145.59 251.65 143.75 251.54 143.01 251.5C135.16 251.04 127.37 249.82 119.75 247.84C117.67 247.3 112.46 245.95 104.13 243.79C102.66 242.99 101.74 242.49 101.37 242.29C97.4 240.14 96.14 235.05 98.64 231.29C99.03 230.7 100.02 229.23 101.59 226.87L124.01 194.29C119.79 193 117.15 192.2 116.1 191.88C111.23 190.39 106.53 188.42 102.06 185.99C98.41 184.01 100.46 185.13 98.38 184C88.81 178.81 80.58 171.45 74.36 162.51C72.84 160.35 76.25 165.23 74.36 162.51C69.43 155.45 66.75 147.07 66.66 138.46C66.62 135.08 66.69 141.11 66.66 138.46C66.54 127.65 70.85 117.26 78.58 109.69C80.22 108.08 77.52 110.73 80.28 108.03C84.46 103.92 90.03 101.53 95.89 101.31C99.19 101.19 107.43 100.88 120.63 100.38C121.45 98.62 121.96 97.52 122.17 97.08C127.19 86.35 135.74 77.67 146.39 72.47C146.67 72.33 147.39 71.98 148.54 71.42" id="b2dVt3JfR1"></path><path d="M203.06 140.96C203.06 180.53 183.16 212.66 158.65 212.66C134.13 212.66 114.23 180.53 114.23 140.96C114.23 101.38 134.13 69.25 158.65 69.25C183.16 69.25 203.06 101.38 203.06 140.96Z" id="b1DOtcuN2"></path><path d="M182.97 249.89L170.7 211.39" id="dN7cfIFzi"></path><path d="M135.44 249.89L147.71 211.39" id="aWnlI402a"></path></defs><g><g><g><g><use xlink:href="#bmKww1S1i" opacity="1" fill-opacity="0" stroke="#18ccd7" stroke-width="27" stroke-opacity="1"></use></g></g><g><use xlink:href="#e1YgVIi2r3" opacity="1" fill="#ffffff" fill-opacity="1"></use><g><use xlink:href="#e1YgVIi2r3" opacity="1" fill-opacity="0" stroke="#eaeaea" stroke-width="4" stroke-opacity="1"></use></g></g><g><g><g><g><use xlink:href="#aR15qKyET" opacity="1" fill-opacity="0" stroke="#484848" stroke-width="11" stroke-opacity="1"></use></g></g><g><g><use xlink:href="#b2dVt3JfR1" opacity="1" fill-opacity="0" stroke="#484848" stroke-width="11" stroke-opacity="1"></use></g></g></g><g><g><use xlink:href="#b1DOtcuN2" opacity="1" fill-opacity="0" stroke="#484848" stroke-width="11" stroke-opacity="1"></use></g></g><g><g><use xlink:href="#dN7cfIFzi" opacity="1" fill-opacity="0" stroke="#484848" stroke-width="11" stroke-opacity="1"></use></g></g><g><g><use xlink:href="#aWnlI402a" opacity="1" fill-opacity="0" stroke="#484848" stroke-width="11" stroke-opacity="1"></use></g></g></g></g></g></svg>